<?xml version="1.0" encoding="utf-8"?>
<!-- Generator: Adobe Illustrator 15.1.0, SVG Export Plug-In . SVG Version: 6.00 Build 0)  -->
<!DOCTYPE svg PUBLIC "-//W3C//DTD SVG 1.1//EN" "http://www.w3.org/Graphics/SVG/1.1/DTD/svg11.dtd">
<svg version="1.1" id="Layer_1" xmlns="http://www.w3.org/2000/svg" xmlns:xlink="http://www.w3.org/1999/xlink" x="0px" y="0px"
	 width="130.178px" height="37.5px" viewBox="21.521 3.475 130.178 37.5" enable-background="new 21.521 3.475 130.178 37.5"
	 xml:space="preserve">
<path fill="#FFFFFF" d="M76.044,4.711c-1,0.27-1.842,1.125-2.175,2.207c-0.353,1.132-0.05,2.47,0.742,3.326
	c0.591,0.635,1.371,0.968,2.276,0.968c1.797,0,3.174-1.407,3.174-3.244c0-1.597-0.942-2.879-2.395-3.262
	C77.239,4.586,76.484,4.592,76.044,4.711z M22.192,5.025c-0.276,0.139-0.478,0.346-0.572,0.572c-0.132,0.301-0.132,30.729,0,31.031
	c0.101,0.245,0.385,0.516,0.623,0.604c0.114,0.043,0.836,0.069,1.905,0.069c1.88,0,2.012-0.02,2.326-0.358
	c0.088-0.094,0.195-0.246,0.239-0.333c0.05-0.114,0.076-1.647,0.1-5.288l0.032-5.129l2.766,5.129c1.98,3.678,2.842,5.213,3.036,5.42
	c0.151,0.17,0.403,0.352,0.579,0.427c0.308,0.133,0.384,0.139,2.766,0.12l2.452-0.02l0.194-0.194
	c0.251-0.252,0.314-0.655,0.151-0.974c-0.062-0.121-1.667-2.735-3.571-5.811c-1.905-3.079-3.457-5.626-3.457-5.662
	c0-0.039,1.339-1.906,2.985-4.151c1.641-2.244,3.018-4.143,3.056-4.219c0.1-0.188,0.094-0.552-0.013-0.76
	c-0.183-0.352-0.227-0.359-2.735-0.359c-2.25,0-2.307,0-2.584,0.138c-0.157,0.082-0.401,0.264-0.541,0.409
	c-0.145,0.151-1.346,2.037-2.671,4.193l-2.415,3.922l-0.031-9.014l-0.032-9.015l-0.169-0.295c-0.119-0.202-0.257-0.327-0.446-0.421
	c-0.258-0.125-0.372-0.132-2.03-0.132C22.67,4.925,22.349,4.943,22.192,5.025z M62.302,5.044C62,5.183,61.867,5.321,61.735,5.635
	c-0.082,0.202-0.094,1.735-0.094,13.856c0,14.774-0.013,14.258,0.34,15.282c0.088,0.252,0.238,0.604,0.333,0.786
	c0.238,0.44,0.968,1.164,1.433,1.408c1.439,0.761,3.929,0.817,6.129,0.145c0.459-0.138,0.647-0.231,0.805-0.396
	c0.346-0.353,0.346-0.467,0.108-2.062c-0.125-0.793-0.246-1.503-0.277-1.584c-0.082-0.207-0.352-0.408-0.609-0.459
	c-0.112-0.02-0.472,0.012-0.792,0.068s-0.805,0.112-1.069,0.119c-0.56,0.006-0.754-0.094-0.962-0.504
	c-0.125-0.244-0.125-0.4-0.157-13.383C66.891,6.149,66.885,5.767,66.772,5.533c-0.069-0.138-0.232-0.32-0.371-0.408l-0.251-0.17
	l-1.799-0.018C62.71,4.925,62.527,4.938,62.302,5.044z M106,8.54c-1.873,0.453-1.992,0.502-2.244,1.019
	c-0.15,0.301-0.15,0.314-0.17,2.923l-0.018,2.628h-1.164c-1.371,0-1.654,0.056-1.975,0.377c-0.333,0.333-0.389,0.609-0.364,1.823
	c0.019,1.195,0.088,1.408,0.51,1.685c0.251,0.17,0.258,0.17,1.628,0.188l1.371,0.019v6.833c0,7.028,0.012,7.469,0.258,8.373
	c0.295,1.107,1.043,2.105,1.91,2.56c1.207,0.635,3.176,0.78,5.395,0.396c1.56-0.264,2.105-0.559,2.163-1.175
	c0.037-0.358-0.422-2.792-0.579-3.094c-0.056-0.112-0.188-0.257-0.301-0.327c-0.22-0.139-0.296-0.139-1.49,0
	c-0.931,0.113-1.32,0.019-1.685-0.396c-0.403-0.458-0.39-0.245-0.39-7.027v-6.149h1.489c1.384,0,1.51-0.006,1.761-0.132
	c0.188-0.094,0.327-0.22,0.446-0.421c0.169-0.296,0.169-0.302,0.169-1.465v-1.169l-0.188-0.301c-0.333-0.534-0.446-0.56-2.182-0.585
	l-1.49-0.019l-0.019-3.125c-0.019-2.992-0.024-3.13-0.145-3.338c-0.069-0.119-0.201-0.27-0.289-0.339
	C108.099,8.074,107.799,8.105,106,8.54L106,8.54z M47.635,14.927c-4.099,0.528-6.833,3.86-7.5,9.141
	c-0.125,0.943-0.101,3.521,0.032,4.526c0.471,3.533,1.792,6.017,3.973,7.469c1.78,1.182,3.816,1.635,6.733,1.49
	c2.156-0.107,3.465-0.377,5.08-1.051c0.691-0.289,0.975-0.597,0.975-1.068c0-0.245-0.855-2.741-1.037-3.011
	c-0.145-0.228-0.383-0.358-0.647-0.353c-0.125,0-0.616,0.131-1.081,0.282c-1.584,0.528-2.98,0.724-4.357,0.61
	c-1.302-0.107-2.111-0.434-2.816-1.132c-0.773-0.767-1.207-1.95-1.364-3.733l-0.05-0.542h5.425c5.803,0,5.671,0.007,6.011-0.301
	c0.289-0.258,0.358-0.528,0.358-1.377c0-1.968-0.333-4.073-0.886-5.652c-1.238-3.527-3.936-5.4-7.727-5.362
	C48.357,14.87,47.854,14.896,47.635,14.927z M49.803,19.17c0.339,0.094,0.773,0.384,1.088,0.735c0.584,0.641,1.011,2.056,1.15,3.798
	l0.025,0.332h-6.494l0.05-0.459c0.133-1.156,0.377-2.031,0.792-2.842C47.144,19.322,48.351,18.761,49.803,19.17z M90.447,14.92
	c-3.031,0.383-5.029,1.981-5.708,4.558c-0.145,0.541-0.169,0.767-0.176,1.604c-0.006,1.162,0.076,1.547,0.528,2.482
	c0.699,1.44,1.824,2.402,4.626,3.961c1.679,0.938,2.415,1.428,2.905,1.938c0.541,0.564,0.768,1.056,0.768,1.672
	c0,0.654-0.095,0.924-0.472,1.301c-0.485,0.485-0.762,0.561-2.044,0.555c-1.452,0-2.288-0.201-4.865-1.157
	c-0.491-0.176-0.749-0.132-1.056,0.195c-0.202,0.214-0.283,0.408-0.673,1.622c-0.245,0.754-0.446,1.465-0.446,1.572
	c0,0.301,0.151,0.598,0.396,0.786c0.301,0.232,1.584,0.691,2.741,0.985c4.375,1.119,7.852,0.617,9.901-1.426
	c1.276-1.276,1.95-3.132,1.842-5.086c-0.094-1.653-0.646-2.848-1.923-4.124c-0.817-0.811-1.735-1.434-3.646-2.478
	c-1.572-0.855-2.088-1.188-2.59-1.647c-0.498-0.465-0.686-0.854-0.686-1.427c0-0.754,0.396-1.364,1.1-1.686
	c0.283-0.132,0.402-0.145,1.195-0.145c1.031,0.007,1.49,0.101,2.842,0.597c1.118,0.409,1.439,0.403,1.816-0.013
	c0.195-0.213,0.283-0.408,0.686-1.578c0.339-0.987,0.358-1.069,0.289-1.301c-0.164-0.541-0.491-0.754-1.917-1.226
	c-1.201-0.402-2.056-0.534-3.653-0.565C91.503,14.877,90.698,14.889,90.447,14.92z M75.076,15.203
	c-0.296,0.101-0.51,0.289-0.636,0.566c-0.087,0.182-0.101,1.314-0.101,10.467c0,8.701,0.013,10.279,0.088,10.423
	c0.119,0.228,0.409,0.491,0.623,0.573c0.114,0.043,0.836,0.068,1.899,0.068c1.063,0,1.785-0.025,1.898-0.068
	c0.239-0.089,0.522-0.359,0.623-0.604c0.133-0.303,0.133-20.477,0-20.785c-0.106-0.257-0.415-0.553-0.678-0.654
	C78.477,15.077,75.39,15.09,75.076,15.203L75.076,15.203z M123.251,15.241c-4.319,0.314-7.972,3.734-9.016,8.423
	c-0.609,2.754-0.271,5.553,0.975,8.073c0.528,1.075,1.081,1.86,1.905,2.716c1.603,1.672,3.507,2.659,5.677,2.942
	c0.849,0.113,1.257,0.119,2.08,0.025c4.721-0.51,8.424-4.552,8.996-9.814c0.472-4.262-1.458-8.606-4.804-10.819
	c-1.313-0.868-2.885-1.434-4.211-1.521l-0.754-0.057C123.961,15.203,123.578,15.215,123.251,15.241z M124.992,19.799
	c1.572,0.327,3.088,1.697,3.867,3.495c1.489,3.439,0.188,7.688-2.811,9.198c-0.78,0.389-1.227,0.497-2.105,0.497
	c-0.843,0-1.302-0.101-2.044-0.46c-1.194-0.571-2.105-1.533-2.766-2.916c-1.591-3.312-0.483-7.568,2.401-9.273
	C122.572,19.724,123.748,19.542,124.992,19.799z M140.262,28.072c-1.848,0.353-2.979,2.312-2.842,4.922
	c0.157,3.062,1.805,4.508,4.778,4.188c1.132-0.125,2.049-0.478,2.049-0.786c0-0.17-0.352-1.22-0.453-1.345
	c-0.094-0.113-0.275-0.095-0.836,0.094c-0.428,0.139-0.616,0.163-1.257,0.163c-0.572,0.006-0.812-0.019-0.987-0.101
	c-0.56-0.251-0.86-0.71-0.986-1.496c-0.038-0.22-0.07-0.439-0.07-0.484c0-0.057,0.491-0.076,2.232-0.076h2.238l0.164-0.163
	c0.163-0.163,0.163-0.169,0.125-0.868c-0.082-1.559-0.496-2.659-1.264-3.357C142.488,28.147,141.312,27.871,140.262,28.072
	L140.262,28.072z M141.482,29.833c0.383,0.194,0.679,0.767,0.734,1.421l0.038,0.453h-1.302c-0.993,0-1.295-0.019-1.295-0.082
	c0-0.038,0.045-0.27,0.094-0.503C139.992,29.971,140.709,29.443,141.482,29.833z M148.084,28.092
	c-0.925,0.207-1.604,0.734-1.898,1.465c-0.201,0.51-0.207,1.483-0.006,1.91c0.27,0.592,0.873,1.102,2.087,1.779
	c0.962,0.535,1.327,0.906,1.327,1.346c0,0.295-0.107,0.496-0.327,0.641c-0.183,0.113-0.282,0.126-0.805,0.102
	c-0.472-0.02-0.735-0.076-1.276-0.258c-0.378-0.127-0.735-0.228-0.792-0.228c-0.188,0-0.314,0.207-0.517,0.849
	c-0.188,0.609-0.195,0.616-0.074,0.78c0.082,0.106,0.288,0.214,0.634,0.333c1.259,0.422,2.547,0.516,3.407,0.245
	c0.836-0.258,1.333-0.679,1.686-1.434c0.156-0.333,0.17-0.428,0.17-1.119c0-0.697-0.014-0.779-0.177-1.112
	c-0.271-0.553-0.931-1.125-1.898-1.653c-0.44-0.245-0.949-0.573-1.125-0.729c-0.282-0.259-0.32-0.32-0.32-0.547
	c0-0.762,0.729-0.98,1.931-0.578c0.308,0.1,0.597,0.188,0.641,0.188c0.15,0,0.34-0.283,0.51-0.767
	c0.163-0.466,0.17-0.497,0.068-0.647C151.013,28.18,149.134,27.853,148.084,28.092L148.084,28.092z M134.605,34.484
	c-0.353,0.095-0.824,0.572-0.919,0.932c-0.213,0.785,0.239,1.552,1.031,1.766c0.579,0.156,1.289-0.207,1.553-0.792
	c0.333-0.729-0.082-1.659-0.849-1.887C135.07,34.396,134.951,34.396,134.605,34.484z"/>
</svg>
